<mxfile host="app.diagrams.net" modified="2020-10-04T05:29:02.736Z" agent="5.0 (Windows NT 10.0; Win64; x64) AppleWebKit/537.36 (KHTML, like Gecko) Chrome/85.0.4183.121 Safari/537.36 Edg/85.0.564.68" etag="oO1zyRy8K4zWCz-o8zun" version="13.7.7" type="github">
  <diagram id="vcJ616cmpiNWVdmcBv0x" name="Page-1">
    <mxGraphModel dx="930" dy="789" grid="0" gridSize="10" guides="1" tooltips="1" connect="1" arrows="1" fold="1" page="1" pageScale="1" pageWidth="2339" pageHeight="3300" math="0" shadow="0">
      <root>
        <mxCell id="0" />
        <mxCell id="1" parent="0" />
        <mxCell id="_K4movWzCvrckxXmSMUi-10" style="edgeStyle=orthogonalEdgeStyle;rounded=0;orthogonalLoop=1;jettySize=auto;html=1;entryX=0.5;entryY=0;entryDx=0;entryDy=0;" parent="1" source="_K4movWzCvrckxXmSMUi-9" target="_K4movWzCvrckxXmSMUi-14" edge="1">
          <mxGeometry relative="1" as="geometry">
            <mxPoint x="373" y="312" as="targetPoint" />
          </mxGeometry>
        </mxCell>
        <mxCell id="_K4movWzCvrckxXmSMUi-23" value="验证成功" style="edgeLabel;html=1;align=center;verticalAlign=middle;resizable=0;points=[];" parent="_K4movWzCvrckxXmSMUi-10" vertex="1" connectable="0">
          <mxGeometry x="0.2817" y="2" relative="1" as="geometry">
            <mxPoint as="offset" />
          </mxGeometry>
        </mxCell>
        <mxCell id="_K4movWzCvrckxXmSMUi-11" value="&lt;font color=&quot;#ff0000&quot;&gt;手机号&lt;/font&gt;" style="edgeStyle=orthogonalEdgeStyle;rounded=0;orthogonalLoop=1;jettySize=auto;html=1;strokeWidth=4;strokeColor=#FF9933;" parent="1" source="_K4movWzCvrckxXmSMUi-9" edge="1">
          <mxGeometry relative="1" as="geometry">
            <mxPoint x="627" y="199" as="targetPoint" />
          </mxGeometry>
        </mxCell>
        <mxCell id="_K4movWzCvrckxXmSMUi-13" value="&lt;font color=&quot;#ff0000&quot;&gt;验证码&lt;/font&gt;" style="edgeStyle=orthogonalEdgeStyle;rounded=0;orthogonalLoop=1;jettySize=auto;html=1;strokeWidth=4;strokeColor=#FF9933;" parent="1" source="_K4movWzCvrckxXmSMUi-9" edge="1">
          <mxGeometry relative="1" as="geometry">
            <mxPoint x="625" y="229" as="targetPoint" />
            <Array as="points">
              <mxPoint x="431" y="229" />
              <mxPoint x="431" y="229" />
            </Array>
          </mxGeometry>
        </mxCell>
        <mxCell id="_K4movWzCvrckxXmSMUi-9" value="登录" style="whiteSpace=wrap;html=1;aspect=fixed;fillColor=#f5f5f5;strokeColor=#666666;fontColor=#333333;" parent="1" vertex="1">
          <mxGeometry x="327" y="159" width="80" height="80" as="geometry" />
        </mxCell>
        <mxCell id="_K4movWzCvrckxXmSMUi-15" style="edgeStyle=orthogonalEdgeStyle;rounded=0;orthogonalLoop=1;jettySize=auto;html=1;strokeWidth=4;strokeColor=#FF9933;" parent="1" source="_K4movWzCvrckxXmSMUi-14" edge="1">
          <mxGeometry relative="1" as="geometry">
            <mxPoint x="652" y="411" as="targetPoint" />
          </mxGeometry>
        </mxCell>
        <mxCell id="_K4movWzCvrckxXmSMUi-16" value="&lt;font color=&quot;#ff0000&quot;&gt;用户密码&lt;/font&gt;" style="edgeLabel;html=1;align=center;verticalAlign=middle;resizable=0;points=[];" parent="_K4movWzCvrckxXmSMUi-15" vertex="1" connectable="0">
          <mxGeometry x="-0.3" y="-1" relative="1" as="geometry">
            <mxPoint x="24" y="-1" as="offset" />
          </mxGeometry>
        </mxCell>
        <mxCell id="_K4movWzCvrckxXmSMUi-30" style="edgeStyle=orthogonalEdgeStyle;rounded=0;orthogonalLoop=1;jettySize=auto;html=1;strokeColor=#000000;fillColor=#66B2FF;" parent="1" source="_K4movWzCvrckxXmSMUi-14" target="_K4movWzCvrckxXmSMUi-29" edge="1">
          <mxGeometry relative="1" as="geometry" />
        </mxCell>
        <mxCell id="_K4movWzCvrckxXmSMUi-31" value="密码设置成功" style="edgeLabel;html=1;align=center;verticalAlign=middle;resizable=0;points=[];" parent="_K4movWzCvrckxXmSMUi-30" vertex="1" connectable="0">
          <mxGeometry x="0.2373" y="6" relative="1" as="geometry">
            <mxPoint as="offset" />
          </mxGeometry>
        </mxCell>
        <mxCell id="_K4movWzCvrckxXmSMUi-14" value="设置密码" style="whiteSpace=wrap;html=1;fillColor=#f5f5f5;strokeColor=#666666;fontColor=#333333;" parent="1" vertex="1">
          <mxGeometry x="307" y="381" width="120" height="60" as="geometry" />
        </mxCell>
        <mxCell id="_K4movWzCvrckxXmSMUi-17" value="发送验证码给用户" style="text;html=1;align=center;verticalAlign=middle;resizable=0;points=[];autosize=1;fillColor=#6a00ff;strokeColor=#3700CC;fontColor=#ffffff;" parent="1" vertex="1">
          <mxGeometry x="642" y="190" width="106" height="18" as="geometry" />
        </mxCell>
        <mxCell id="_K4movWzCvrckxXmSMUi-18" value="检查验证码正确性" style="text;html=1;align=center;verticalAlign=middle;resizable=0;points=[];autosize=1;fillColor=#6a00ff;strokeColor=#3700CC;fontColor=#ffffff;" parent="1" vertex="1">
          <mxGeometry x="642" y="221" width="106" height="18" as="geometry" />
        </mxCell>
        <mxCell id="_K4movWzCvrckxXmSMUi-19" value="" style="endArrow=classic;html=1;fillColor=#66B2FF;strokeColor=#6666FF;strokeWidth=4;" parent="1" edge="1">
          <mxGeometry width="50" height="50" relative="1" as="geometry">
            <mxPoint x="686" y="282" as="sourcePoint" />
            <mxPoint x="156" y="282" as="targetPoint" />
          </mxGeometry>
        </mxCell>
        <mxCell id="_K4movWzCvrckxXmSMUi-20" value="&lt;font style=&quot;font-size: 13px&quot; color=&quot;#6666ff&quot;&gt;验证是否成功&lt;/font&gt;" style="edgeLabel;html=1;align=center;verticalAlign=middle;resizable=0;points=[];" parent="_K4movWzCvrckxXmSMUi-19" vertex="1" connectable="0">
          <mxGeometry x="-0.5925" y="3" relative="1" as="geometry">
            <mxPoint as="offset" />
          </mxGeometry>
        </mxCell>
        <mxCell id="_K4movWzCvrckxXmSMUi-21" style="edgeStyle=orthogonalEdgeStyle;rounded=0;orthogonalLoop=1;jettySize=auto;html=1;entryX=0;entryY=0.25;entryDx=0;entryDy=0;strokeColor=#000000;fillColor=#66B2FF;" parent="1" source="_K4movWzCvrckxXmSMUi-9" target="_K4movWzCvrckxXmSMUi-9" edge="1">
          <mxGeometry relative="1" as="geometry">
            <Array as="points">
              <mxPoint x="367" y="259" />
              <mxPoint x="256" y="259" />
              <mxPoint x="256" y="179" />
            </Array>
          </mxGeometry>
        </mxCell>
        <mxCell id="_K4movWzCvrckxXmSMUi-22" value="验证失败" style="edgeLabel;html=1;align=center;verticalAlign=middle;resizable=0;points=[];" parent="_K4movWzCvrckxXmSMUi-21" vertex="1" connectable="0">
          <mxGeometry x="0.1418" y="1" relative="1" as="geometry">
            <mxPoint as="offset" />
          </mxGeometry>
        </mxCell>
        <mxCell id="_K4movWzCvrckxXmSMUi-24" style="edgeStyle=orthogonalEdgeStyle;rounded=0;orthogonalLoop=1;jettySize=auto;html=1;entryX=0;entryY=0.5;entryDx=0;entryDy=0;strokeColor=#000000;fillColor=#66B2FF;" parent="1" source="_K4movWzCvrckxXmSMUi-14" target="_K4movWzCvrckxXmSMUi-14" edge="1">
          <mxGeometry relative="1" as="geometry">
            <Array as="points">
              <mxPoint x="367" y="461" />
              <mxPoint x="243" y="461" />
              <mxPoint x="243" y="411" />
            </Array>
          </mxGeometry>
        </mxCell>
        <mxCell id="_K4movWzCvrckxXmSMUi-25" value="密码设置成功" style="edgeLabel;html=1;align=center;verticalAlign=middle;resizable=0;points=[];" parent="_K4movWzCvrckxXmSMUi-24" vertex="1" connectable="0">
          <mxGeometry x="0.1268" y="3" relative="1" as="geometry">
            <mxPoint x="62" y="1" as="offset" />
          </mxGeometry>
        </mxCell>
        <mxCell id="_K4movWzCvrckxXmSMUi-26" value="" style="endArrow=classic;html=1;fillColor=#66B2FF;strokeColor=#6666FF;strokeWidth=4;" parent="1" edge="1">
          <mxGeometry width="50" height="50" relative="1" as="geometry">
            <mxPoint x="688" y="482" as="sourcePoint" />
            <mxPoint x="158" y="482" as="targetPoint" />
          </mxGeometry>
        </mxCell>
        <mxCell id="_K4movWzCvrckxXmSMUi-27" value="&lt;font style=&quot;font-size: 13px&quot; color=&quot;#6666ff&quot;&gt;密码设置是否成功&lt;/font&gt;" style="edgeLabel;html=1;align=center;verticalAlign=middle;resizable=0;points=[];" parent="_K4movWzCvrckxXmSMUi-26" vertex="1" connectable="0">
          <mxGeometry x="-0.5925" y="3" relative="1" as="geometry">
            <mxPoint as="offset" />
          </mxGeometry>
        </mxCell>
        <mxCell id="_K4movWzCvrckxXmSMUi-32" style="edgeStyle=orthogonalEdgeStyle;rounded=0;orthogonalLoop=1;jettySize=auto;html=1;entryX=0;entryY=0.5;entryDx=0;entryDy=0;strokeColor=#000000;fillColor=#66B2FF;" parent="1" source="_K4movWzCvrckxXmSMUi-29" target="_K4movWzCvrckxXmSMUi-14" edge="1">
          <mxGeometry relative="1" as="geometry">
            <Array as="points">
              <mxPoint x="242" y="589" />
              <mxPoint x="242" y="411" />
            </Array>
          </mxGeometry>
        </mxCell>
        <mxCell id="_K4movWzCvrckxXmSMUi-33" value="用户修改密码" style="edgeLabel;html=1;align=center;verticalAlign=middle;resizable=0;points=[];" parent="_K4movWzCvrckxXmSMUi-32" vertex="1" connectable="0">
          <mxGeometry x="-0.2273" y="-1" relative="1" as="geometry">
            <mxPoint as="offset" />
          </mxGeometry>
        </mxCell>
        <mxCell id="_K4movWzCvrckxXmSMUi-34" style="edgeStyle=orthogonalEdgeStyle;rounded=0;orthogonalLoop=1;jettySize=auto;html=1;strokeColor=#FF9933;strokeWidth=4;fillColor=#66B2FF;" parent="1" source="_K4movWzCvrckxXmSMUi-29" edge="1">
          <mxGeometry relative="1" as="geometry">
            <mxPoint x="642" y="589" as="targetPoint" />
          </mxGeometry>
        </mxCell>
        <mxCell id="_K4movWzCvrckxXmSMUi-35" value="&lt;font color=&quot;#ff0000&quot;&gt;小学/初中/高中&lt;/font&gt;" style="edgeLabel;html=1;align=center;verticalAlign=middle;resizable=0;points=[];" parent="_K4movWzCvrckxXmSMUi-34" vertex="1" connectable="0">
          <mxGeometry x="-0.1824" y="1" relative="1" as="geometry">
            <mxPoint y="1" as="offset" />
          </mxGeometry>
        </mxCell>
        <mxCell id="vigppPBALEysMJNteH---3" style="edgeStyle=orthogonalEdgeStyle;rounded=0;orthogonalLoop=1;jettySize=auto;html=1;fontSize=15;" edge="1" parent="1" source="_K4movWzCvrckxXmSMUi-29" target="vigppPBALEysMJNteH---4">
          <mxGeometry relative="1" as="geometry">
            <mxPoint x="367" y="695" as="targetPoint" />
          </mxGeometry>
        </mxCell>
        <mxCell id="_K4movWzCvrckxXmSMUi-29" value="登录状态" style="whiteSpace=wrap;html=1;fillColor=#f5f5f5;strokeColor=#666666;fontColor=#333333;" parent="1" vertex="1">
          <mxGeometry x="307" y="559" width="120" height="60" as="geometry" />
        </mxCell>
        <mxCell id="_K4movWzCvrckxXmSMUi-36" value="保存用户密码" style="text;html=1;align=center;verticalAlign=middle;resizable=0;points=[];autosize=1;fillColor=#6a00ff;strokeColor=#3700CC;fontColor=#ffffff;" parent="1" vertex="1">
          <mxGeometry x="657" y="402" width="82" height="18" as="geometry" />
        </mxCell>
        <mxCell id="_K4movWzCvrckxXmSMUi-37" value="获取对应的题目&lt;br&gt;以及保存试题的答案" style="text;html=1;align=center;verticalAlign=middle;resizable=0;points=[];autosize=1;fillColor=#6a00ff;strokeColor=#3700CC;fontColor=#ffffff;" parent="1" vertex="1">
          <mxGeometry x="651" y="571" width="118" height="32" as="geometry" />
        </mxCell>
        <mxCell id="vigppPBALEysMJNteH---1" value="" style="endArrow=classic;html=1;fillColor=#66B2FF;strokeColor=#6666FF;strokeWidth=4;fontSize=15;" edge="1" parent="1">
          <mxGeometry width="50" height="50" relative="1" as="geometry">
            <mxPoint x="686" y="640" as="sourcePoint" />
            <mxPoint x="156" y="640" as="targetPoint" />
          </mxGeometry>
        </mxCell>
        <mxCell id="vigppPBALEysMJNteH---2" value="&lt;font style=&quot;font-size: 13px&quot; color=&quot;#6666ff&quot;&gt;所有试题&lt;/font&gt;" style="edgeLabel;html=1;align=center;verticalAlign=middle;resizable=0;points=[];" vertex="1" connectable="0" parent="vigppPBALEysMJNteH---1">
          <mxGeometry x="-0.5925" y="3" relative="1" as="geometry">
            <mxPoint as="offset" />
          </mxGeometry>
        </mxCell>
        <mxCell id="vigppPBALEysMJNteH---6" style="edgeStyle=orthogonalEdgeStyle;rounded=0;orthogonalLoop=1;jettySize=auto;html=1;fontSize=15;strokeWidth=4;strokeColor=#FF9933;" edge="1" parent="1" source="vigppPBALEysMJNteH---4">
          <mxGeometry relative="1" as="geometry">
            <mxPoint x="643.5" y="734" as="targetPoint" />
          </mxGeometry>
        </mxCell>
        <mxCell id="vigppPBALEysMJNteH---7" value="&lt;font style=&quot;font-size: 11px&quot; color=&quot;#ff0000&quot;&gt;做题结果&lt;/font&gt;" style="edgeLabel;html=1;align=center;verticalAlign=middle;resizable=0;points=[];fontSize=15;" vertex="1" connectable="0" parent="vigppPBALEysMJNteH---6">
          <mxGeometry x="-0.1132" y="-3" relative="1" as="geometry">
            <mxPoint x="-1" y="-6" as="offset" />
          </mxGeometry>
        </mxCell>
        <mxCell id="vigppPBALEysMJNteH---11" style="edgeStyle=orthogonalEdgeStyle;rounded=0;orthogonalLoop=1;jettySize=auto;html=1;fontSize=15;entryX=0.5;entryY=0;entryDx=0;entryDy=0;" edge="1" parent="1" source="vigppPBALEysMJNteH---4" target="vigppPBALEysMJNteH---12">
          <mxGeometry relative="1" as="geometry">
            <mxPoint x="367" y="841.5" as="targetPoint" />
          </mxGeometry>
        </mxCell>
        <mxCell id="vigppPBALEysMJNteH---4" value="做题" style="whiteSpace=wrap;html=1;fillColor=#f5f5f5;strokeColor=#666666;fontColor=#333333;" vertex="1" parent="1">
          <mxGeometry x="307" y="704" width="120" height="60" as="geometry" />
        </mxCell>
        <mxCell id="vigppPBALEysMJNteH---8" value="计算答题分数" style="text;html=1;align=center;verticalAlign=middle;resizable=0;points=[];autosize=1;fillColor=#6a00ff;strokeColor=#3700CC;fontColor=#ffffff;" vertex="1" parent="1">
          <mxGeometry x="672" y="728" width="82" height="18" as="geometry" />
        </mxCell>
        <mxCell id="vigppPBALEysMJNteH---9" value="" style="endArrow=classic;html=1;fillColor=#66B2FF;strokeColor=#6666FF;strokeWidth=4;fontSize=15;" edge="1" parent="1">
          <mxGeometry width="50" height="50" relative="1" as="geometry">
            <mxPoint x="678" y="794" as="sourcePoint" />
            <mxPoint x="148" y="794" as="targetPoint" />
          </mxGeometry>
        </mxCell>
        <mxCell id="vigppPBALEysMJNteH---10" value="&lt;font style=&quot;font-size: 13px&quot; color=&quot;#6666ff&quot;&gt;答题分数&lt;/font&gt;" style="edgeLabel;html=1;align=center;verticalAlign=middle;resizable=0;points=[];" vertex="1" connectable="0" parent="vigppPBALEysMJNteH---9">
          <mxGeometry x="-0.5925" y="3" relative="1" as="geometry">
            <mxPoint as="offset" />
          </mxGeometry>
        </mxCell>
        <mxCell id="vigppPBALEysMJNteH---13" style="edgeStyle=orthogonalEdgeStyle;rounded=0;orthogonalLoop=1;jettySize=auto;html=1;entryX=0;entryY=0.75;entryDx=0;entryDy=0;fontSize=15;" edge="1" parent="1" source="vigppPBALEysMJNteH---12" target="_K4movWzCvrckxXmSMUi-29">
          <mxGeometry relative="1" as="geometry">
            <Array as="points">
              <mxPoint x="243" y="877" />
              <mxPoint x="243" y="604" />
            </Array>
          </mxGeometry>
        </mxCell>
        <mxCell id="vigppPBALEysMJNteH---14" value="&lt;font style=&quot;font-size: 11px&quot;&gt;继续登录状态&lt;/font&gt;" style="edgeLabel;html=1;align=center;verticalAlign=middle;resizable=0;points=[];fontSize=15;" vertex="1" connectable="0" parent="vigppPBALEysMJNteH---13">
          <mxGeometry x="-0.1833" y="-5" relative="1" as="geometry">
            <mxPoint x="-2" y="64.33" as="offset" />
          </mxGeometry>
        </mxCell>
        <mxCell id="vigppPBALEysMJNteH---16" style="edgeStyle=orthogonalEdgeStyle;rounded=0;orthogonalLoop=1;jettySize=auto;html=1;fontSize=15;entryX=0;entryY=0.25;entryDx=0;entryDy=0;" edge="1" parent="1" source="vigppPBALEysMJNteH---12" target="_K4movWzCvrckxXmSMUi-9">
          <mxGeometry relative="1" as="geometry">
            <mxPoint x="201" y="314" as="targetPoint" />
            <Array as="points">
              <mxPoint x="197" y="877" />
              <mxPoint x="197" y="179" />
            </Array>
          </mxGeometry>
        </mxCell>
        <mxCell id="vigppPBALEysMJNteH---17" value="&lt;font style=&quot;font-size: 11px&quot;&gt;登出&lt;/font&gt;" style="edgeLabel;html=1;align=center;verticalAlign=middle;resizable=0;points=[];fontSize=15;" vertex="1" connectable="0" parent="vigppPBALEysMJNteH---16">
          <mxGeometry x="-0.4412" y="-2" relative="1" as="geometry">
            <mxPoint as="offset" />
          </mxGeometry>
        </mxCell>
        <mxCell id="vigppPBALEysMJNteH---12" value="显示分数完成" style="whiteSpace=wrap;html=1;fillColor=#f5f5f5;strokeColor=#666666;fontColor=#333333;" vertex="1" parent="1">
          <mxGeometry x="307" y="847" width="120" height="60" as="geometry" />
        </mxCell>
        <mxCell id="vigppPBALEysMJNteH---20" style="edgeStyle=orthogonalEdgeStyle;rounded=0;orthogonalLoop=1;jettySize=auto;html=1;strokeWidth=4;strokeColor=#FF9933;" edge="1" parent="1">
          <mxGeometry relative="1" as="geometry">
            <mxPoint x="932" y="292" as="targetPoint" />
            <mxPoint x="758" y="292" as="sourcePoint" />
          </mxGeometry>
        </mxCell>
        <mxCell id="vigppPBALEysMJNteH---21" value="&lt;font color=&quot;#ff0000&quot;&gt;前端给后端&lt;/font&gt;" style="edgeLabel;html=1;align=center;verticalAlign=middle;resizable=0;points=[];" vertex="1" connectable="0" parent="vigppPBALEysMJNteH---20">
          <mxGeometry x="-0.3" y="-1" relative="1" as="geometry">
            <mxPoint x="24" y="-1" as="offset" />
          </mxGeometry>
        </mxCell>
        <mxCell id="vigppPBALEysMJNteH---22" value="" style="endArrow=classic;html=1;fillColor=#66B2FF;strokeColor=#6666FF;strokeWidth=4;fontSize=15;" edge="1" parent="1">
          <mxGeometry width="50" height="50" relative="1" as="geometry">
            <mxPoint x="928" y="326" as="sourcePoint" />
            <mxPoint x="754" y="326" as="targetPoint" />
          </mxGeometry>
        </mxCell>
        <mxCell id="vigppPBALEysMJNteH---23" value="&lt;font style=&quot;font-size: 13px&quot; color=&quot;#6666ff&quot;&gt;后端给前端&lt;/font&gt;" style="edgeLabel;html=1;align=center;verticalAlign=middle;resizable=0;points=[];" vertex="1" connectable="0" parent="vigppPBALEysMJNteH---22">
          <mxGeometry x="-0.5925" y="3" relative="1" as="geometry">
            <mxPoint x="-42" y="-6" as="offset" />
          </mxGeometry>
        </mxCell>
      </root>
    </mxGraphModel>
  </diagram>
</mxfile>
